<?xml version="1.0" standalone="no"?>
<!DOCTYPE svg PUBLIC "-//W3C//DTD SVG 20010904//EN"
 "http://www.w3.org/TR/2001/REC-SVG-20010904/DTD/svg10.dtd">
<svg version="1.0" xmlns="http://www.w3.org/2000/svg"
 width="700.000000pt" height="700.000000pt" viewBox="0 0 700.000000 700.000000"
 preserveAspectRatio="xMidYMid meet">
<metadata>
Created by potrace 1.11, written by Peter Selinger 2001-2013
</metadata>
<g transform="translate(0.000000,700.000000) scale(0.100000,-0.100000)"
fill="#000000" stroke="none">
<path d="M3327 6414 c-1 -1 -33 -4 -72 -8 -91 -7 -140 -14 -250 -33 -49 -8
-103 -17 -119 -20 -44 -7 -293 -78 -371 -106 -312 -111 -632 -295 -895 -516
-92 -77 -284 -271 -367 -371 -311 -375 -525 -830 -618 -1312 -22 -114 -29
-134 -73 -205 -125 -200 -227 -477 -247 -673 -4 -36 -9 -68 -11 -72 -7 -11 -6
-305 0 -358 4 -25 9 -63 12 -85 3 -22 16 -87 30 -145 148 -626 635 -1123 1259
-1285 53 -14 102 -28 108 -32 7 -4 52 -36 101 -71 414 -299 919 -483 1446
-529 156 -13 445 -8 600 12 1130 141 2083 937 2424 2025 20 63 38 125 41 138
2 13 7 32 10 42 9 27 44 220 59 320 26 172 26 544 0 735 -11 82 -45 271 -54
300 -5 17 -12 41 -14 55 -9 42 -36 144 -45 165 -5 11 -26 67 -46 125 -195 549
-596 1062 -1095 1402 -165 112 -389 233 -545 292 -38 15 -79 31 -90 36 -25 12
-175 59 -204 65 -11 2 -24 6 -29 8 -29 18 -345 75 -512 93 -56 6 -427 13 -433
8z"/>
</g>
</svg>
